<svg id="svg" version="1.1" xmlns="http://www.w3.org/2000/svg" xmlns:xlink="http://www.w3.org/1999/xlink" width="400" height="400" viewBox="0, 0, 400,400"><g id="svgg"><path id="path0" d="M297.500 176.481 L 296.000 176.879 296.000 184.867 L 296.000 192.854 295.100 192.602 C 294.605 192.463,293.840 192.200,293.400 192.016 C 286.378 189.086,278.085 192.309,274.916 199.200 C 273.456 202.374,272.918 210.846,273.995 213.706 C 277.808 223.833,284.993 226.597,299.500 223.518 L 301.600 223.072 301.600 199.536 L 301.600 176.000 300.300 176.041 C 299.585 176.064,298.325 176.262,297.500 176.481 M102.833 182.100 C 99.254 182.617,99.501 181.196,99.687 200.181 C 99.868 218.561,99.948 219.178,102.506 221.910 C 105.237 224.827,111.592 225.493,117.500 223.482 C 118.980 222.978,118.931 223.117,118.376 221.000 C 117.654 218.248,117.797 218.366,115.967 219.012 C 113.818 219.770,109.495 219.773,108.034 219.018 C 105.680 217.800,105.400 216.417,105.400 206.000 L 105.400 196.600 110.600 196.502 C 117.819 196.367,117.600 196.451,117.600 193.803 L 117.600 191.621 111.500 191.510 L 105.400 191.400 105.200 186.593 L 105.000 181.787 102.833 182.100 M36.600 191.280 C 32.535 192.030,32.584 191.993,32.735 194.216 C 32.903 196.679,33.232 197.050,34.706 196.439 C 38.550 194.847,45.464 195.989,47.358 198.529 C 48.402 199.930,48.626 205.092,47.633 204.878 C 40.694 203.381,32.056 205.953,30.041 210.115 C 26.087 218.283,33.073 225.737,43.678 224.665 C 51.144 223.911,53.359 223.601,53.693 223.267 C 54.387 222.573,53.863 198.816,53.118 197.200 C 50.712 191.981,44.621 189.798,36.600 191.280 M71.800 191.402 C 66.578 191.981,64.704 192.371,64.306 192.963 C 64.144 193.203,64.009 200.285,64.006 208.700 L 64.000 224.000 66.800 224.000 L 69.600 224.000 69.600 210.464 L 69.600 196.928 70.619 196.464 C 72.104 195.788,78.402 195.874,80.127 196.595 C 83.832 198.143,84.400 200.367,84.400 213.328 L 84.400 224.000 87.239 224.000 L 90.078 224.000 89.918 211.900 C 89.737 198.195,89.475 196.929,86.222 194.073 C 84.304 192.389,78.792 190.547,76.600 190.858 C 76.380 190.889,74.220 191.134,71.800 191.402 M169.800 191.238 C 168.040 191.422,165.385 191.787,163.900 192.050 L 161.200 192.528 161.200 208.264 L 161.200 224.000 163.800 224.000 L 166.400 224.000 166.400 210.439 L 166.400 196.878 167.660 196.439 C 169.499 195.798,175.236 195.889,176.903 196.585 C 180.688 198.167,181.207 200.058,181.486 213.300 L 181.711 224.000 184.287 224.000 L 186.862 224.000 186.728 211.900 C 186.576 198.204,186.355 197.098,183.194 194.242 C 181.079 192.331,175.755 190.497,173.354 190.852 C 173.159 190.881,171.560 191.055,169.800 191.238 M206.400 191.352 C 199.939 192.991,195.876 198.384,195.364 206.000 C 194.376 220.718,204.287 227.952,219.341 223.500 L 220.882 223.045 220.617 221.045 C 220.262 218.367,220.255 218.361,218.090 219.018 C 209.646 221.580,201.673 217.850,201.459 211.236 L 201.400 209.400 212.300 209.294 L 223.200 209.187 223.186 206.494 C 223.127 195.380,215.970 188.924,206.400 191.352 M237.400 191.337 C 232.045 192.942,228.945 196.893,229.799 201.025 C 229.909 201.561,230.095 202.455,230.210 203.010 C 230.326 203.566,231.074 204.744,231.874 205.629 C 233.198 207.095,234.110 207.635,238.400 209.490 C 245.447 212.538,247.356 214.591,245.851 217.501 C 244.648 219.828,237.333 220.700,232.686 219.071 C 230.137 218.177,230.140 218.177,229.851 219.900 C 229.713 220.725,229.496 221.781,229.367 222.247 C 229.187 222.902,229.346 223.144,230.067 223.316 C 230.580 223.438,232.080 223.815,233.400 224.155 C 243.439 226.735,251.739 222.815,251.693 215.513 C 251.662 210.418,249.406 208.158,241.400 205.197 C 236.149 203.256,234.297 200.907,235.770 198.058 C 237.063 195.557,241.569 195.029,248.051 196.617 C 249.259 196.913,250.618 193.258,249.657 192.297 C 248.643 191.283,239.873 190.596,237.400 191.337 M321.200 191.372 C 313.115 193.622,309.028 201.195,310.349 211.476 C 311.752 222.389,321.407 227.267,334.146 223.499 L 335.693 223.041 335.457 221.051 C 335.157 218.517,334.943 218.341,333.000 219.025 C 325.089 221.808,316.471 217.799,316.259 211.236 L 316.200 209.400 327.100 209.294 L 338.000 209.187 337.994 206.494 C 337.970 195.316,330.665 188.739,321.200 191.372 M124.868 203.700 C 124.963 211.596,125.169 216.078,125.460 216.600 C 125.706 217.040,126.132 217.883,126.407 218.474 C 129.222 224.516,135.834 226.017,148.505 223.492 L 150.809 223.033 150.705 207.416 L 150.600 191.800 147.900 191.682 L 145.200 191.563 145.200 205.102 C 145.200 220.950,145.669 219.600,140.169 219.600 C 131.261 219.600,130.400 218.053,130.400 202.054 L 130.400 191.600 127.561 191.600 L 124.722 191.600 124.868 203.700 M342.997 192.882 C 343.873 197.179,349.670 213.317,352.846 220.299 C 353.271 221.233,353.790 222.448,354.000 222.999 C 354.396 224.043,360.000 224.614,360.000 223.610 C 360.000 223.396,360.540 222.041,361.200 220.600 C 361.860 219.159,362.400 217.893,362.400 217.786 C 362.400 217.679,362.778 216.738,363.240 215.696 C 363.702 214.653,364.242 213.395,364.440 212.900 C 364.638 212.405,364.962 211.595,365.161 211.100 C 365.577 210.062,366.769 206.830,367.973 203.476 C 368.649 201.591,370.164 196.769,371.491 192.281 C 371.683 191.629,371.434 191.574,368.784 191.681 L 365.865 191.800 365.108 194.600 C 364.229 197.846,361.342 207.025,360.830 208.200 C 360.638 208.640,360.264 209.630,360.000 210.400 C 359.548 211.717,359.326 212.299,358.436 214.500 C 358.236 214.995,357.967 215.726,357.839 216.125 C 357.187 218.152,352.871 207.397,349.602 195.600 C 348.437 191.398,348.858 191.813,345.632 191.682 L 342.728 191.564 342.997 192.882 M213.200 196.517 C 216.011 198.591,217.200 200.595,217.200 203.257 L 217.200 204.817 209.300 204.708 L 201.400 204.600 201.505 203.274 C 201.744 200.256,205.138 196.230,207.746 195.872 C 209.488 195.632,212.480 195.987,213.200 196.517 M328.282 196.629 C 330.584 198.106,332.000 200.631,332.000 203.257 L 332.000 204.817 324.100 204.708 L 316.200 204.600 316.338 203.210 C 316.625 200.303,319.470 196.708,321.907 196.171 C 322.508 196.038,323.180 195.863,323.400 195.781 C 324.156 195.500,327.401 196.063,328.282 196.629 M293.600 197.115 L 295.800 198.200 295.907 208.351 C 296.036 220.552,296.482 219.600,290.629 219.600 C 283.508 219.600,280.298 216.889,279.261 210.000 C 277.708 199.678,285.180 192.963,293.600 197.115 M48.312 214.470 L 48.423 219.540 46.155 219.823 C 38.698 220.755,34.800 218.830,34.800 214.216 C 34.800 210.324,38.584 208.599,45.800 209.200 L 48.200 209.400 48.312 214.470 M259.160 218.042 C 255.704 221.742,260.643 227.002,264.600 223.836 C 266.323 222.457,266.364 219.216,264.678 217.765 C 262.988 216.312,260.668 216.428,259.160 218.042 " stroke="none" fill="#faf7f7" fill-rule="evenodd"></path><path id="path1" d="M30.300 0.292 C 29.255 0.375,28.400 0.614,28.400 0.822 C 28.400 1.030,27.950 1.200,27.400 1.200 C 26.850 1.200,26.400 1.380,26.400 1.600 C 26.400 1.820,25.961 2.000,25.424 2.000 C 24.887 2.000,24.336 2.180,24.200 2.400 C 24.064 2.620,23.603 2.800,23.176 2.800 C 22.749 2.800,22.400 2.980,22.400 3.200 C 22.400 3.420,22.055 3.600,21.633 3.600 C 21.212 3.600,20.807 3.735,20.733 3.900 C 20.660 4.065,19.790 4.641,18.800 5.180 C 17.810 5.719,16.651 6.484,16.225 6.880 C 15.798 7.276,15.298 7.600,15.114 7.600 C 14.303 7.600,7.600 14.303,7.600 15.114 C 7.600 15.298,7.276 15.798,6.880 16.225 C 6.484 16.651,5.719 17.810,5.180 18.800 C 4.641 19.790,4.065 20.660,3.900 20.733 C 3.735 20.807,3.600 21.212,3.600 21.633 C 3.600 22.055,3.420 22.400,3.200 22.400 C 2.980 22.400,2.800 22.749,2.800 23.176 C 2.800 23.603,2.620 24.064,2.400 24.200 C 2.180 24.336,2.000 24.887,2.000 25.424 C 2.000 25.961,1.820 26.400,1.600 26.400 C 1.380 26.400,1.200 26.835,1.200 27.367 C 1.200 27.898,0.975 28.408,0.700 28.500 C 0.301 28.633,0.200 63.289,0.200 200.000 C 0.200 336.711,0.301 371.367,0.700 371.500 C 0.975 371.592,1.200 372.102,1.200 372.633 C 1.200 373.165,1.380 373.600,1.600 373.600 C 1.820 373.600,2.000 374.039,2.000 374.576 C 2.000 375.113,2.180 375.664,2.400 375.800 C 2.620 375.936,2.800 376.397,2.800 376.824 C 2.800 377.251,2.980 377.600,3.200 377.600 C 3.420 377.600,3.600 377.945,3.600 378.367 C 3.600 378.788,3.735 379.193,3.900 379.267 C 4.065 379.340,4.641 380.210,5.180 381.200 C 5.719 382.190,6.484 383.349,6.880 383.775 C 7.276 384.202,7.600 384.702,7.600 384.886 C 7.600 385.697,14.303 392.400,15.114 392.400 C 15.298 392.400,15.798 392.724,16.225 393.120 C 16.651 393.516,17.810 394.281,18.800 394.820 C 19.790 395.359,20.660 395.935,20.733 396.100 C 20.807 396.265,21.212 396.400,21.633 396.400 C 22.055 396.400,22.400 396.580,22.400 396.800 C 22.400 397.020,22.749 397.200,23.176 397.200 C 23.603 397.200,24.064 397.380,24.200 397.600 C 24.336 397.820,24.887 398.000,25.424 398.000 C 25.961 398.000,26.400 398.180,26.400 398.400 C 26.400 398.620,26.835 398.800,27.367 398.800 C 27.898 398.800,28.408 399.025,28.500 399.300 C 28.745 400.036,371.255 400.036,371.500 399.300 C 371.592 399.025,372.102 398.800,372.633 398.800 C 373.165 398.800,373.600 398.620,373.600 398.400 C 373.600 398.180,374.039 398.000,374.576 398.000 C 375.113 398.000,375.664 397.820,375.800 397.600 C 375.936 397.380,376.397 397.200,376.824 397.200 C 377.251 397.200,377.600 397.020,377.600 396.800 C 377.600 396.580,377.945 396.400,378.367 396.400 C 378.788 396.400,379.193 396.265,379.267 396.100 C 379.340 395.935,380.210 395.359,381.200 394.820 C 382.190 394.281,383.349 393.516,383.775 393.120 C 384.202 392.724,384.702 392.400,384.886 392.400 C 385.697 392.400,392.400 385.697,392.400 384.886 C 392.400 384.702,392.724 384.202,393.120 383.775 C 393.516 383.349,394.281 382.190,394.820 381.200 C 395.359 380.210,395.935 379.340,396.100 379.267 C 396.265 379.193,396.400 378.788,396.400 378.367 C 396.400 377.945,396.580 377.600,396.800 377.600 C 397.020 377.600,397.200 377.251,397.200 376.824 C 397.200 376.397,397.380 375.936,397.600 375.800 C 397.820 375.664,398.000 375.113,398.000 374.576 C 398.000 374.039,398.180 373.600,398.400 373.600 C 398.620 373.600,398.800 373.165,398.800 372.633 C 398.800 372.102,399.025 371.592,399.300 371.500 C 399.699 371.367,399.800 336.711,399.800 200.000 C 399.800 63.289,399.699 28.633,399.300 28.500 C 399.025 28.408,398.800 27.898,398.800 27.367 C 398.800 26.835,398.620 26.400,398.400 26.400 C 398.180 26.400,398.000 25.961,398.000 25.424 C 398.000 24.887,397.820 24.336,397.600 24.200 C 397.380 24.064,397.200 23.603,397.200 23.176 C 397.200 22.749,397.020 22.400,396.800 22.400 C 396.580 22.400,396.400 22.055,396.400 21.633 C 396.400 21.212,396.265 20.807,396.100 20.733 C 395.935 20.660,395.359 19.790,394.820 18.800 C 394.281 17.810,393.516 16.651,393.120 16.225 C 392.724 15.798,392.400 15.298,392.400 15.114 C 392.400 14.303,385.697 7.600,384.886 7.600 C 384.702 7.600,384.202 7.276,383.775 6.880 C 383.349 6.484,382.190 5.719,381.200 5.180 C 380.210 4.641,379.340 4.065,379.267 3.900 C 379.193 3.735,378.788 3.600,378.367 3.600 C 377.945 3.600,377.600 3.420,377.600 3.200 C 377.600 2.980,377.251 2.800,376.824 2.800 C 376.397 2.800,375.936 2.620,375.800 2.400 C 375.664 2.180,375.113 2.000,374.576 2.000 C 374.039 2.000,373.600 1.820,373.600 1.600 C 373.600 1.380,373.165 1.200,372.633 1.200 C 372.102 1.200,371.592 0.975,371.500 0.700 C 371.344 0.231,36.082 -0.170,30.300 0.292 M301.920 175.680 C 302.282 176.042,302.400 181.922,302.400 199.690 L 302.400 223.220 301.300 223.668 C 298.205 224.929,287.506 225.642,284.600 224.781 C 280.206 223.480,274.800 219.185,274.800 216.995 C 274.800 216.668,274.659 216.400,274.487 216.400 C 274.117 216.400,273.408 213.976,272.759 210.488 C 272.298 208.013,272.716 203.207,273.584 201.000 C 275.062 197.242,278.219 192.822,279.447 192.791 C 279.641 192.786,280.250 192.430,280.800 192.000 C 281.350 191.570,282.194 191.214,282.676 191.209 C 283.158 191.204,283.664 191.020,283.800 190.800 C 284.393 189.841,291.710 190.445,294.095 191.649 C 294.477 191.842,294.882 192.000,294.995 192.000 C 295.108 192.000,295.200 188.602,295.200 184.449 C 295.200 175.765,295.126 175.951,298.761 175.559 C 299.993 175.426,301.099 175.291,301.220 175.259 C 301.341 175.226,301.656 175.416,301.920 175.680 M105.600 186.200 L 105.600 191.200 111.800 191.200 L 118.000 191.200 118.000 193.957 C 118.000 197.346,118.308 197.200,111.167 197.200 L 105.600 197.200 105.600 204.794 C 105.600 218.439,107.467 221.050,115.359 218.447 L 117.643 217.693 118.183 218.547 C 118.481 219.016,118.841 220.300,118.983 221.400 C 119.269 223.608,119.388 223.492,115.572 224.735 C 113.876 225.287,107.486 225.357,106.495 224.834 C 106.113 224.632,105.135 224.178,104.322 223.826 C 99.632 221.788,99.200 219.692,99.200 198.941 L 99.200 182.134 101.100 181.722 C 102.145 181.496,103.585 181.285,104.300 181.255 L 105.600 181.200 105.600 186.200 M46.200 190.800 C 46.336 191.020,46.799 191.200,47.229 191.200 C 49.980 191.200,53.251 195.109,54.346 199.706 C 55.009 202.490,54.970 223.446,54.300 223.867 C 52.746 224.844,39.143 225.547,36.605 224.781 C 30.799 223.028,28.690 220.340,28.670 214.671 C 28.654 210.043,31.764 205.259,34.820 205.210 C 35.161 205.204,35.611 205.047,35.820 204.859 C 36.600 204.160,42.919 203.530,44.800 203.965 C 48.070 204.720,48.140 204.682,47.829 202.337 C 47.119 196.984,43.262 195.282,35.483 196.888 C 32.622 197.479,32.000 196.964,32.000 194.004 C 32.000 191.917,32.504 191.203,33.980 191.194 C 34.541 191.191,35.270 191.013,35.600 190.800 C 36.401 190.282,45.880 190.282,46.200 190.800 M82.100 191.002 C 82.925 191.159,83.600 191.448,83.600 191.644 C 83.600 191.840,83.882 192.000,84.226 192.000 C 85.138 192.000,89.200 196.206,89.200 197.150 C 89.200 197.592,89.361 198.052,89.558 198.174 C 90.275 198.617,90.503 202.026,90.551 213.000 L 90.600 224.200 87.400 224.200 L 84.200 224.200 83.960 213.400 C 83.715 202.323,83.478 200.570,81.968 198.650 C 80.406 196.665,75.691 195.959,71.322 197.055 L 70.411 197.284 70.305 210.742 L 70.200 224.200 66.895 224.316 L 63.591 224.433 63.695 208.379 L 63.800 192.325 65.400 191.769 C 66.280 191.463,67.630 191.197,68.400 191.178 C 69.170 191.159,70.160 190.984,70.600 190.788 C 71.481 190.397,79.722 190.550,82.100 191.002 M178.372 190.855 C 186.256 193.369,187.600 196.658,187.600 213.436 L 187.600 224.432 184.300 224.316 L 181.000 224.200 180.770 213.000 C 180.522 200.875,180.328 199.745,178.205 198.076 C 176.195 196.494,172.099 196.084,168.105 197.064 L 167.211 197.284 167.105 210.742 L 167.000 224.200 163.800 224.200 L 160.600 224.200 160.600 208.263 L 160.600 192.326 162.200 191.769 C 163.080 191.463,164.430 191.191,165.200 191.166 C 165.970 191.141,167.050 190.976,167.600 190.800 C 169.143 190.306,176.771 190.345,178.372 190.855 M213.800 190.800 C 213.936 191.020,214.391 191.200,214.811 191.200 C 219.426 191.200,223.317 197.745,223.371 205.600 L 223.400 209.800 212.685 209.907 C 200.536 210.027,201.102 209.839,202.407 213.326 C 204.420 218.706,214.007 221.257,219.487 217.870 C 220.997 216.937,222.115 222.771,220.614 223.754 C 218.833 224.921,209.024 225.621,206.200 224.782 C 197.213 222.114,192.817 213.764,194.974 203.458 C 196.335 196.954,199.182 193.582,205.600 190.876 C 206.884 190.334,213.474 190.273,213.800 190.800 M248.075 191.011 C 250.380 191.434,250.829 192.186,250.263 194.684 C 249.618 197.535,249.305 197.772,247.161 197.025 C 243.682 195.813,237.842 196.345,236.513 197.995 C 234.745 200.190,236.833 202.786,242.000 204.815 C 250.154 208.017,252.400 210.345,252.400 215.600 C 252.400 222.350,247.796 225.425,238.200 225.086 C 229.196 224.768,227.804 223.893,229.332 219.507 C 230.051 217.443,230.016 217.455,232.823 218.376 C 244.343 222.158,250.327 215.660,239.800 210.800 C 238.260 210.089,236.031 209.054,234.847 208.498 C 227.919 205.251,227.058 196.581,233.257 192.479 C 234.321 191.776,235.542 191.200,235.972 191.200 C 236.401 191.200,236.873 191.005,237.020 190.767 C 237.300 190.314,245.223 190.489,248.075 191.011 M329.081 190.856 C 332.036 192.061,332.744 192.449,333.871 193.485 C 337.031 196.387,338.487 200.500,338.316 206.041 L 338.200 209.800 327.500 209.907 L 316.800 210.013 316.802 210.907 C 316.819 217.441,325.014 221.170,333.069 218.308 C 335.250 217.533,335.659 217.856,336.046 220.662 C 336.540 224.245,335.665 224.681,327.217 225.065 C 319.532 225.414,313.717 222.588,311.421 217.390 C 309.948 214.056,309.904 213.887,309.340 209.479 C 308.365 201.853,314.586 191.200,320.014 191.200 C 320.420 191.200,320.864 191.020,321.000 190.800 C 321.340 190.250,327.703 190.294,329.081 190.856 M130.836 202.000 C 131.129 215.164,131.489 216.684,134.670 218.218 C 136.443 219.073,140.290 219.408,142.600 218.910 L 144.200 218.565 144.400 204.982 L 144.600 191.400 147.800 191.400 L 151.000 191.400 151.105 207.279 L 151.209 223.158 149.905 223.750 C 147.320 224.922,136.207 225.623,133.411 224.789 C 125.753 222.506,124.354 219.227,124.126 203.022 C 123.943 190.026,123.624 191.137,127.494 191.283 L 130.600 191.400 130.836 202.000 M349.796 193.900 C 350.189 195.385,350.738 197.320,351.016 198.200 C 351.295 199.080,351.928 201.150,352.424 202.800 C 352.921 204.450,353.478 205.971,353.663 206.180 C 353.849 206.389,354.000 206.886,354.000 207.285 C 354.000 207.684,354.164 208.323,354.364 208.705 C 354.992 209.904,356.400 213.685,356.400 214.173 C 356.400 214.430,356.609 214.849,356.865 215.105 C 357.355 215.595,358.400 214.127,358.400 212.949 C 358.400 212.641,358.580 212.032,358.800 211.595 C 359.020 211.158,359.380 210.442,359.600 210.005 C 359.820 209.568,360.000 208.936,360.000 208.600 C 360.000 208.264,360.174 207.677,360.386 207.295 C 360.776 206.593,362.654 200.922,363.597 197.600 C 363.878 196.610,364.287 195.170,364.505 194.400 C 365.455 191.051,365.255 191.200,368.791 191.200 C 372.293 191.200,372.629 191.540,371.644 194.081 C 371.448 194.587,370.886 196.350,370.395 198.000 C 368.959 202.826,364.603 214.491,362.404 219.400 C 361.812 220.720,361.076 222.385,360.767 223.100 L 360.205 224.400 357.112 224.400 L 354.020 224.400 353.257 222.700 C 351.230 218.183,349.922 215.031,348.401 211.000 C 347.488 208.580,346.593 206.240,346.411 205.800 C 346.229 205.360,345.864 204.370,345.600 203.600 C 345.336 202.830,344.982 201.840,344.815 201.400 C 344.509 200.596,344.135 199.337,343.208 196.000 C 342.934 195.010,342.525 193.807,342.301 193.327 C 341.484 191.577,342.092 191.200,345.728 191.200 L 349.081 191.200 349.796 193.900 M206.485 196.984 C 204.154 198.271,202.030 201.363,202.009 203.500 L 202.000 204.400 209.400 204.400 C 217.764 204.400,217.392 204.578,216.186 201.162 C 214.766 197.134,209.960 195.065,206.485 196.984 M285.604 196.926 C 279.435 198.891,277.646 211.268,282.789 216.411 C 285.344 218.967,290.761 220.108,294.174 218.810 L 295.200 218.420 295.200 208.471 L 295.200 198.521 293.500 197.817 C 290.313 196.496,289.962 196.400,288.481 196.441 C 287.667 196.463,286.372 196.682,285.604 196.926 M321.285 196.984 C 318.954 198.271,316.830 201.363,316.809 203.500 L 316.800 204.400 324.251 204.400 L 331.702 204.400 331.434 202.725 C 330.640 197.757,325.328 194.752,321.285 196.984 M38.083 210.472 C 35.411 211.768,34.505 214.296,35.810 216.818 C 36.746 218.629,38.626 219.200,43.649 219.200 L 48.000 219.200 48.000 214.880 C 48.000 212.053,47.834 210.394,47.520 210.080 C 46.665 209.225,40.091 209.499,38.083 210.472 M264.886 217.066 C 268.375 220.173,266.380 225.200,261.659 225.200 C 257.170 225.200,255.809 218.766,259.838 216.589 C 261.273 215.814,263.742 216.047,264.886 217.066 " stroke="none" fill="#8b0404" fill-rule="evenodd"></path><path id="path2" d="M301.330 175.700 C 301.963 176.163,302.005 177.939,301.907 199.862 C 301.848 212.876,301.935 223.440,302.100 223.338 C 302.265 223.236,302.400 212.579,302.400 199.656 C 302.400 176.015,302.355 175.200,301.044 175.200 C 300.825 175.200,300.954 175.425,301.330 175.700 M296.089 176.223 C 295.217 176.833,295.202 176.995,295.287 184.523 L 295.374 192.200 295.587 184.412 L 295.800 176.625 297.400 176.143 C 298.657 175.765,298.783 175.655,297.989 175.631 C 297.433 175.614,296.578 175.880,296.089 176.223 M102.000 181.600 C 101.208 181.854,101.167 181.920,101.800 181.920 C 102.240 181.920,103.050 181.776,103.600 181.600 C 104.392 181.346,104.433 181.280,103.800 181.280 C 103.360 181.280,102.550 181.424,102.000 181.600 M35.600 190.796 C 35.199 191.052,35.730 191.098,37.200 190.934 C 38.410 190.799,39.475 190.623,39.567 190.544 C 39.958 190.206,36.144 190.448,35.600 190.796 M43.233 190.543 C 43.650 190.902,46.397 191.119,46.185 190.776 C 46.057 190.569,45.303 190.400,44.510 190.400 C 43.716 190.400,43.142 190.465,43.233 190.543 M70.713 190.728 C 70.335 190.878,72.522 191.000,75.572 191.000 C 78.623 191.000,80.912 190.868,80.659 190.706 C 80.086 190.339,71.648 190.358,70.713 190.728 M167.674 190.740 C 167.164 190.883,169.352 191.000,172.535 191.000 C 175.718 191.000,178.114 190.868,177.861 190.706 C 177.300 190.349,168.968 190.376,167.674 190.740 M206.000 190.795 C 205.591 191.055,205.910 191.099,207.000 190.932 C 208.977 190.629,209.314 190.398,207.767 190.406 C 207.125 190.409,206.330 190.584,206.000 190.795 M210.800 190.558 C 210.800 190.645,211.505 190.783,212.366 190.865 C 213.228 190.948,213.847 190.876,213.743 190.707 C 213.553 190.400,210.800 190.260,210.800 190.558 M237.015 190.776 C 236.876 191.001,237.391 191.059,238.291 190.920 C 240.300 190.610,240.461 190.400,238.690 190.400 C 237.897 190.400,237.143 190.569,237.015 190.776 M243.233 190.544 C 243.325 190.623,244.300 190.791,245.400 190.918 C 246.687 191.067,247.115 191.026,246.600 190.803 C 245.836 190.472,242.886 190.245,243.233 190.544 M283.831 190.750 C 283.632 191.072,287.190 190.879,287.567 190.547 C 287.658 190.466,286.904 190.400,285.890 190.400 C 284.877 190.400,283.950 190.558,283.831 190.750 M288.033 190.547 C 288.125 190.628,289.079 190.788,290.154 190.904 C 291.349 191.032,291.893 190.978,291.554 190.763 C 291.035 190.435,287.671 190.228,288.033 190.547 M321.052 190.716 C 320.944 190.890,321.473 190.961,322.228 190.873 C 322.983 190.785,323.600 190.642,323.600 190.556 C 323.600 190.255,321.245 190.403,321.052 190.716 M325.633 190.545 C 325.725 190.625,326.601 190.792,327.579 190.918 C 328.730 191.065,329.154 191.016,328.779 190.779 C 328.245 190.440,325.258 190.219,325.633 190.545 M66.000 191.618 C 65.562 191.915,65.724 191.952,66.600 191.756 C 68.071 191.427,68.390 191.198,67.367 191.206 C 66.945 191.209,66.330 191.395,66.000 191.618 M124.267 191.467 C 123.901 191.832,123.939 213.285,124.306 213.863 C 124.468 214.118,124.547 209.273,124.482 203.098 C 124.389 194.240,124.473 191.800,124.882 191.541 C 125.175 191.355,125.211 191.210,124.967 191.206 C 124.728 191.203,124.413 191.320,124.267 191.467 M130.399 200.719 L 130.599 210.200 130.707 201.028 C 130.767 195.983,130.677 191.717,130.508 191.547 C 130.338 191.377,130.290 195.505,130.399 200.719 M144.591 191.700 C 144.274 192.564,144.185 218.734,144.500 218.538 C 144.665 218.436,144.800 212.348,144.800 205.010 C 144.800 194.710,144.914 191.621,145.300 191.465 C 145.692 191.307,145.689 191.256,145.287 191.232 C 145.006 191.214,144.692 191.425,144.591 191.700 M150.800 207.320 L 151.000 223.400 151.104 207.625 C 151.162 198.948,151.072 191.712,150.905 191.544 C 150.737 191.377,150.690 198.476,150.800 207.320 M162.800 191.618 C 162.362 191.915,162.524 191.952,163.400 191.756 C 164.871 191.427,165.190 191.198,164.167 191.206 C 163.745 191.209,163.130 191.395,162.800 191.618 M249.200 191.725 C 250.008 192.140,250.184 192.504,250.115 193.619 L 250.029 195.000 250.402 193.818 C 250.815 192.508,250.029 191.195,248.838 191.206 C 248.437 191.210,248.571 191.403,249.200 191.725 M342.267 191.467 C 341.905 191.828,341.928 193.108,342.300 193.338 C 342.465 193.440,342.600 193.001,342.600 192.362 C 342.600 191.723,342.585 191.200,342.567 191.200 C 342.548 191.200,342.413 191.320,342.267 191.467 M63.783 192.501 C 63.677 192.776,63.638 200.111,63.696 208.801 L 63.801 224.600 64.000 208.300 C 64.110 199.335,64.149 192.000,64.087 192.000 C 64.026 192.000,63.888 192.225,63.783 192.501 M160.667 192.267 C 160.297 192.637,160.329 223.909,160.700 224.138 C 160.865 224.240,161.000 217.051,161.000 208.162 C 161.000 199.273,160.985 192.000,160.967 192.000 C 160.948 192.000,160.813 192.120,160.667 192.267 M232.000 193.313 C 231.670 193.581,231.137 194.160,230.815 194.600 C 230.494 195.040,230.809 194.871,231.515 194.225 C 232.667 193.172,233.000 192.775,232.700 192.813 C 232.645 192.820,232.330 193.045,232.000 193.313 M32.006 195.033 C 32.009 195.455,32.195 196.070,32.418 196.400 C 32.715 196.838,32.752 196.676,32.556 195.800 C 32.227 194.329,31.998 194.010,32.006 195.033 M350.006 195.833 C 350.009 196.255,350.195 196.870,350.418 197.200 C 350.715 197.638,350.752 197.476,350.556 196.600 C 350.227 195.129,349.998 194.810,350.006 195.833 M38.900 196.291 C 39.725 196.378,41.075 196.378,41.900 196.291 C 42.725 196.205,42.050 196.134,40.400 196.134 C 38.750 196.134,38.075 196.205,38.900 196.291 M208.905 196.287 C 209.514 196.379,210.414 196.377,210.905 196.282 C 211.397 196.187,210.900 196.111,209.800 196.114 C 208.700 196.117,208.297 196.195,208.905 196.287 M240.711 196.293 C 241.651 196.378,243.091 196.377,243.911 196.291 C 244.730 196.205,243.960 196.136,242.200 196.137 C 240.440 196.139,239.770 196.209,240.711 196.293 M323.705 196.287 C 324.314 196.379,325.214 196.377,325.705 196.282 C 326.197 196.187,325.700 196.111,324.600 196.114 C 323.500 196.117,323.097 196.195,323.705 196.287 M43.633 196.528 C 44.269 197.015,46.800 198.336,46.800 198.181 C 46.800 197.913,44.282 196.403,43.833 196.401 C 43.632 196.401,43.542 196.457,43.633 196.528 M212.600 196.866 C 213.040 197.108,213.858 197.688,214.419 198.154 C 214.979 198.619,214.846 198.415,214.124 197.700 C 213.402 196.985,212.584 196.405,212.306 196.412 C 212.028 196.419,212.160 196.623,212.600 196.866 M291.200 196.851 C 294.284 198.177,294.800 198.371,294.800 198.204 C 294.800 197.892,292.662 196.925,291.400 196.667 C 290.255 196.433,290.246 196.441,291.200 196.851 M326.833 196.521 C 326.925 196.588,327.540 196.958,328.200 197.345 L 329.400 198.047 328.456 197.224 C 327.936 196.771,327.321 196.400,327.089 196.400 C 326.857 196.400,326.742 196.454,326.833 196.521 M70.191 197.300 C 69.874 198.164,69.785 224.334,70.100 224.138 C 70.265 224.036,70.400 217.947,70.400 210.606 C 70.400 198.231,70.451 197.245,71.100 197.076 C 71.756 196.904,71.755 196.890,71.087 196.846 C 70.696 196.821,70.292 197.025,70.191 197.300 M108.518 197.098 C 110.233 197.173,112.933 197.172,114.518 197.097 C 116.103 197.021,114.700 196.959,111.400 196.960 C 108.100 196.961,106.803 197.022,108.518 197.098 M166.991 197.300 C 166.674 198.164,166.585 224.334,166.900 224.138 C 167.065 224.036,167.200 217.947,167.200 210.606 C 167.200 198.231,167.251 197.245,167.900 197.076 C 168.556 196.904,168.555 196.890,167.887 196.846 C 167.496 196.821,167.092 197.025,166.991 197.300 M176.800 197.249 C 177.350 197.469,178.168 197.952,178.619 198.324 C 179.070 198.696,178.932 198.505,178.313 197.900 C 177.694 197.295,176.875 196.811,176.494 196.825 C 176.016 196.843,176.112 196.975,176.800 197.249 M204.175 198.500 L 203.000 199.800 204.300 198.625 C 205.015 197.979,205.600 197.394,205.600 197.325 C 205.600 197.016,205.270 197.288,204.175 198.500 M282.822 198.243 C 282.140 198.817,281.394 199.672,281.164 200.143 C 280.824 200.841,280.895 200.815,281.549 200.001 C 281.991 199.452,282.858 198.598,283.476 198.103 C 284.094 197.609,284.479 197.203,284.331 197.202 C 284.183 197.201,283.504 197.669,282.822 198.243 M229.324 200.200 C 229.326 201.520,229.401 202.012,229.490 201.293 C 229.579 200.574,229.577 199.494,229.486 198.893 C 229.395 198.292,229.322 198.880,229.324 200.200 M295.293 208.513 C 295.200 218.379,295.196 218.427,294.300 218.788 C 293.797 218.990,293.665 219.158,294.000 219.169 C 295.571 219.219,295.618 218.886,295.500 208.572 L 295.385 198.600 295.293 208.513 M54.323 211.244 C 54.452 223.485,54.391 223.952,52.651 224.046 C 52.007 224.082,51.965 224.136,52.479 224.272 C 54.738 224.867,54.802 224.530,54.772 212.286 C 54.756 206.079,54.621 200.690,54.472 200.312 C 54.322 199.934,54.255 204.853,54.323 211.244 M187.076 202.600 C 187.205 203.920,187.376 205.075,187.456 205.167 C 187.763 205.521,187.525 201.757,187.192 201.000 C 186.969 200.492,186.926 201.076,187.076 202.600 M337.656 200.800 C 337.656 201.130,337.811 201.760,338.000 202.200 C 338.217 202.704,338.344 202.778,338.344 202.400 C 338.344 202.070,338.189 201.440,338.000 201.000 C 337.783 200.496,337.656 200.422,337.656 200.800 M47.871 202.461 C 48.055 203.968,47.973 204.360,47.441 204.521 C 46.895 204.685,46.904 204.708,47.492 204.656 C 48.336 204.581,48.616 203.015,48.041 201.585 C 47.728 200.806,47.692 200.990,47.871 202.461 M223.044 201.800 C 223.373 203.271,223.602 203.590,223.594 202.567 C 223.591 202.145,223.405 201.530,223.182 201.200 C 222.885 200.762,222.848 200.924,223.044 201.800 M90.200 212.799 C 90.200 219.138,90.335 224.240,90.500 224.138 C 90.888 223.899,90.882 202.348,90.494 201.738 C 90.332 201.484,90.200 206.461,90.200 212.799 M201.849 202.215 C 201.712 202.573,201.618 203.256,201.641 203.733 C 201.667 204.281,201.803 204.086,202.010 203.203 C 202.360 201.716,202.265 201.133,201.849 202.215 M229.600 203.489 C 229.600 203.721,229.971 204.336,230.424 204.856 L 231.247 205.800 230.545 204.600 C 229.620 203.021,229.600 202.997,229.600 203.489 M41.905 203.883 C 42.402 203.979,43.122 203.975,43.505 203.875 C 43.887 203.775,43.480 203.696,42.600 203.701 C 41.720 203.705,41.407 203.787,41.905 203.883 M194.650 204.850 C 194.339 206.403,194.392 210.287,194.740 211.524 C 194.883 212.032,195.000 210.457,195.000 208.024 C 195.000 203.099,195.000 203.100,194.650 204.850 M279.748 207.600 C 279.748 209.910,279.814 210.855,279.895 209.700 C 279.976 208.545,279.976 206.655,279.895 205.500 C 279.814 204.345,279.748 205.290,279.748 207.600 M309.457 205.100 C 309.139 207.025,309.178 210.402,309.528 211.284 C 309.678 211.660,309.802 210.085,309.805 207.784 C 309.810 203.084,309.801 203.015,309.457 205.100 M272.591 206.130 C 272.445 207.302,272.481 209.049,272.672 210.012 C 272.964 211.488,273.018 211.152,273.018 207.882 C 273.018 203.423,272.960 203.183,272.591 206.130 M35.845 204.728 C 35.733 204.908,36.173 204.977,36.821 204.882 C 37.470 204.787,38.000 204.640,38.000 204.555 C 38.000 204.250,36.043 204.407,35.845 204.728 M180.882 214.076 C 180.837 219.508,180.935 224.037,181.100 224.139 C 181.265 224.241,181.354 221.327,181.297 217.663 C 181.108 205.361,180.965 204.129,180.882 214.076 M84.172 215.000 C 84.172 220.060,84.229 222.075,84.299 219.477 C 84.369 216.880,84.368 212.740,84.298 210.277 C 84.228 207.815,84.171 209.940,84.172 215.000 M30.929 207.700 C 30.484 208.195,29.976 208.870,29.801 209.200 C 29.463 209.837,29.555 209.750,31.176 207.900 C 31.706 207.295,32.049 206.800,31.939 206.800 C 31.829 206.800,31.375 207.205,30.929 207.700 M42.700 209.482 C 43.195 209.578,44.005 209.578,44.500 209.482 C 44.995 209.387,44.590 209.309,43.600 209.309 C 42.610 209.309,42.205 209.387,42.700 209.482 M212.500 209.500 C 206.505 209.562,201.600 209.745,201.600 209.906 C 201.599 210.351,222.922 210.038,223.373 209.587 C 223.586 209.374,223.679 209.242,223.580 209.293 C 223.481 209.345,218.495 209.438,212.500 209.500 M327.300 209.500 L 316.400 209.613 316.406 210.906 C 316.409 211.618,316.577 212.461,316.779 212.779 C 317.017 213.156,317.066 212.772,316.920 211.679 L 316.695 210.000 327.324 210.000 C 333.978 210.000,338.045 209.850,338.200 209.600 C 338.336 209.380,338.392 209.242,338.324 209.293 C 338.256 209.345,333.295 209.438,327.300 209.500 M47.486 210.024 C 47.778 210.399,48.023 212.393,48.101 215.024 L 48.230 219.400 48.315 214.949 C 48.388 211.122,48.302 210.421,47.700 209.949 C 47.084 209.466,47.058 209.475,47.486 210.024 M242.400 212.045 C 243.170 212.508,244.115 213.165,244.500 213.506 C 244.885 213.846,245.200 214.007,245.200 213.865 C 245.200 213.492,241.964 211.200,241.440 211.201 C 241.198 211.202,241.630 211.582,242.400 212.045 M251.844 213.000 C 252.173 214.471,252.402 214.790,252.394 213.767 C 252.391 213.345,252.205 212.730,251.982 212.400 C 251.685 211.962,251.648 212.124,251.844 213.000 M28.493 214.400 C 28.493 215.170,28.575 215.485,28.676 215.100 C 28.776 214.715,28.776 214.085,28.676 213.700 C 28.575 213.315,28.493 213.630,28.493 214.400 M105.656 213.800 C 105.656 214.240,105.811 214.960,106.000 215.400 L 106.344 216.200 106.344 215.400 C 106.344 214.960,106.189 214.240,106.000 213.800 L 105.656 213.000 105.656 213.800 M245.401 215.100 C 245.783 216.458,245.269 217.570,243.864 218.426 C 243.169 218.850,242.839 219.198,243.131 219.199 C 244.766 219.203,246.482 216.106,245.568 214.800 C 245.239 214.330,245.203 214.395,245.401 215.100 M317.928 215.400 C 318.363 216.273,319.849 217.709,320.800 218.175 C 321.130 218.337,320.951 218.105,320.401 217.659 C 319.852 217.213,318.981 216.342,318.466 215.724 C 317.931 215.083,317.700 214.944,317.928 215.400 M204.001 216.537 C 204.551 217.162,205.360 217.859,205.800 218.086 C 206.642 218.520,206.618 218.493,204.401 216.597 L 203.003 215.400 204.001 216.537 M282.401 216.537 C 282.951 217.162,283.760 217.859,284.200 218.086 C 285.042 218.520,285.018 218.493,282.801 216.597 L 281.403 215.400 282.401 216.537 M261.300 216.276 C 261.685 216.376,262.315 216.376,262.700 216.276 C 263.085 216.175,262.770 216.093,262.000 216.093 C 261.230 216.093,260.915 216.175,261.300 216.276 M132.400 216.946 C 132.400 217.385,134.720 218.761,135.824 218.976 L 137.000 219.205 135.800 218.745 C 135.140 218.493,134.105 217.939,133.500 217.516 C 132.895 217.092,132.400 216.836,132.400 216.946 M115.400 218.418 C 113.191 219.211,113.361 219.428,115.686 218.783 C 116.503 218.556,117.278 218.197,117.409 217.985 C 117.540 217.773,117.592 217.622,117.524 217.650 C 117.456 217.677,116.500 218.023,115.400 218.418 M311.625 217.800 C 311.625 218.020,311.890 218.549,312.213 218.976 C 312.536 219.404,312.800 219.573,312.800 219.353 C 312.800 219.133,312.536 218.604,312.213 218.176 C 311.890 217.749,311.625 217.580,311.625 217.800 M197.496 219.000 C 197.950 219.660,198.829 220.650,199.450 221.200 C 200.199 221.864,200.059 221.596,199.032 220.400 C 196.936 217.957,196.515 217.574,197.496 219.000 M220.644 219.000 C 220.973 220.471,221.202 220.790,221.194 219.767 C 221.191 219.345,221.005 218.730,220.782 218.400 C 220.485 217.962,220.448 218.124,220.644 219.000 M41.315 219.496 C 42.588 219.576,44.568 219.575,45.715 219.494 C 46.862 219.414,45.820 219.349,43.400 219.350 C 40.980 219.351,40.042 219.416,41.315 219.496 M110.900 219.476 C 111.285 219.576,111.915 219.576,112.300 219.476 C 112.685 219.375,112.370 219.293,111.600 219.293 C 110.830 219.293,110.515 219.375,110.900 219.476 M138.305 219.483 C 138.802 219.579,139.522 219.575,139.905 219.475 C 140.287 219.375,139.880 219.296,139.000 219.301 C 138.120 219.305,137.807 219.387,138.305 219.483 M211.100 219.489 C 211.815 219.578,212.985 219.578,213.700 219.489 C 214.415 219.401,213.830 219.328,212.400 219.328 C 210.970 219.328,210.385 219.401,211.100 219.489 M236.900 219.494 C 237.945 219.576,239.655 219.576,240.700 219.494 C 241.745 219.412,240.890 219.344,238.800 219.344 C 236.710 219.344,235.855 219.412,236.900 219.494 M289.107 219.490 C 289.826 219.579,290.906 219.577,291.507 219.486 C 292.108 219.395,291.520 219.322,290.200 219.324 C 288.880 219.326,288.388 219.401,289.107 219.490 M325.900 219.489 C 326.615 219.578,327.785 219.578,328.500 219.489 C 329.215 219.401,328.630 219.328,327.200 219.328 C 325.770 219.328,325.185 219.401,325.900 219.489 M276.400 219.725 C 276.400 219.794,276.985 220.379,277.700 221.025 L 279.000 222.200 277.825 220.900 C 276.730 219.688,276.400 219.416,276.400 219.725 M101.200 221.325 C 101.200 221.394,101.785 221.979,102.500 222.625 L 103.800 223.800 102.625 222.500 C 101.530 221.288,101.200 221.016,101.200 221.325 M148.000 224.000 L 147.000 224.320 148.076 224.360 C 148.668 224.382,149.264 224.220,149.400 224.000 C 149.681 223.545,149.420 223.545,148.000 224.000 M258.962 224.300 C 259.381 224.795,260.011 225.186,260.362 225.168 C 260.904 225.142,260.909 225.103,260.400 224.916 C 260.070 224.795,259.440 224.404,259.000 224.048 C 258.207 223.406,258.206 223.408,258.962 224.300 M36.821 224.821 C 37.355 225.160,40.342 225.381,39.967 225.055 C 39.875 224.975,38.999 224.808,38.021 224.682 C 36.870 224.535,36.446 224.584,36.821 224.821 M45.800 224.800 L 43.400 225.066 45.800 225.105 C 47.120 225.126,48.560 224.989,49.000 224.800 L 49.800 224.456 49.000 224.495 C 48.560 224.517,47.120 224.654,45.800 224.800 M106.741 224.901 C 106.943 225.103,107.533 225.201,108.054 225.119 C 108.855 224.993,108.798 224.937,107.687 224.752 C 106.893 224.621,106.519 224.679,106.741 224.901 M113.600 224.800 C 112.216 225.091,112.214 225.095,113.400 225.141 C 114.060 225.167,114.870 225.013,115.200 224.800 C 115.866 224.370,115.645 224.370,113.600 224.800 M133.600 224.805 C 133.930 225.016,134.725 225.191,135.367 225.194 C 136.914 225.202,136.577 224.971,134.600 224.668 C 133.510 224.501,133.191 224.545,133.600 224.805 M142.200 224.800 L 140.200 225.074 142.200 225.109 C 143.300 225.128,144.560 224.989,145.000 224.800 L 145.800 224.456 145.000 224.491 C 144.560 224.510,143.300 224.649,142.200 224.800 M206.400 224.794 C 206.730 225.011,207.435 225.191,207.967 225.194 C 209.251 225.202,208.925 224.975,207.200 224.658 C 206.215 224.477,205.978 224.518,206.400 224.794 M215.400 224.800 C 214.293 225.082,214.277 225.109,215.200 225.147 C 215.750 225.169,216.470 225.013,216.800 224.800 C 217.481 224.360,217.129 224.360,215.400 224.800 M233.200 224.805 C 233.530 225.016,234.325 225.191,234.967 225.194 C 236.514 225.202,236.177 224.971,234.200 224.668 C 233.110 224.501,232.791 224.545,233.200 224.805 M243.000 224.800 C 241.893 225.082,241.877 225.109,242.800 225.147 C 243.350 225.169,244.070 225.013,244.400 224.800 C 245.081 224.360,244.729 224.360,243.000 224.800 M284.800 224.805 C 285.130 225.016,285.925 225.191,286.567 225.194 C 288.114 225.202,287.777 224.971,285.800 224.668 C 284.710 224.501,284.391 224.545,284.800 224.805 M294.600 224.800 L 293.000 225.086 294.400 225.137 C 295.170 225.165,296.070 225.013,296.400 224.800 C 297.055 224.377,296.962 224.377,294.600 224.800 M321.200 224.794 C 321.530 225.011,322.235 225.191,322.767 225.194 C 324.051 225.202,323.725 224.975,322.000 224.658 C 321.015 224.477,320.778 224.518,321.200 224.794 M330.200 224.800 C 329.111 225.077,329.093 225.107,330.000 225.125 C 330.550 225.135,331.360 224.989,331.800 224.800 C 332.786 224.376,331.866 224.376,330.200 224.800 " stroke="none" fill="#b15858" fill-rule="evenodd"></path><path id="path3" d="M300.397 175.825 L 301.594 176.050 301.702 199.325 L 301.810 222.600 301.805 199.200 L 301.800 175.800 300.500 175.700 C 299.224 175.602,299.222 175.604,300.397 175.825 M296.600 176.400 C 295.581 176.838,296.632 176.838,298.000 176.400 C 298.804 176.143,298.843 176.077,298.200 176.068 C 297.760 176.062,297.040 176.211,296.600 176.400 M99.900 182.432 C 99.165 182.860,98.852 209.887,99.530 214.400 C 99.678 215.390,99.741 208.856,99.668 199.879 C 99.530 182.712,99.538 182.627,101.329 182.278 C 102.110 182.127,102.117 182.105,101.400 182.067 C 100.960 182.043,100.285 182.208,99.900 182.432 M105.270 186.476 C 105.231 189.048,105.335 191.237,105.500 191.340 C 105.665 191.442,105.752 190.058,105.692 188.263 C 105.498 182.383,105.341 181.718,105.270 186.476 M35.600 191.200 C 34.243 191.486,34.237 191.495,35.400 191.507 C 36.060 191.515,37.050 191.376,37.600 191.200 C 38.912 190.780,37.596 190.780,35.600 191.200 M44.800 191.200 C 45.350 191.376,46.160 191.520,46.600 191.520 C 47.233 191.520,47.192 191.454,46.400 191.200 C 45.850 191.024,45.040 190.880,44.600 190.880 C 43.967 190.880,44.008 190.946,44.800 191.200 M70.400 191.222 C 69.282 191.409,69.964 191.444,72.200 191.314 C 74.180 191.198,75.875 191.035,75.967 190.952 C 76.237 190.706,72.354 190.894,70.400 191.222 M79.000 191.200 C 79.660 191.368,80.650 191.505,81.200 191.505 C 82.092 191.505,82.070 191.472,81.000 191.200 C 80.340 191.032,79.350 190.895,78.800 190.895 C 77.908 190.895,77.930 190.928,79.000 191.200 M167.200 191.222 C 166.082 191.409,166.764 191.444,169.000 191.314 C 170.980 191.198,172.675 191.035,172.767 190.952 C 173.037 190.706,169.154 190.894,167.200 191.222 M175.800 191.200 C 176.460 191.368,177.450 191.505,178.000 191.505 C 178.892 191.505,178.870 191.472,177.800 191.200 C 177.140 191.032,176.150 190.895,175.600 190.895 C 174.708 190.895,174.730 190.928,175.800 191.200 M205.800 191.200 C 204.781 191.638,205.832 191.638,207.200 191.200 C 208.004 190.943,208.043 190.877,207.400 190.868 C 206.960 190.862,206.240 191.011,205.800 191.200 M212.400 191.200 C 212.950 191.376,213.760 191.520,214.200 191.520 C 214.833 191.520,214.792 191.454,214.000 191.200 C 213.450 191.024,212.640 190.880,212.200 190.880 C 211.567 190.880,211.608 190.946,212.400 191.200 M236.800 191.200 C 235.996 191.457,235.957 191.523,236.600 191.532 C 237.040 191.538,237.760 191.389,238.200 191.200 C 239.219 190.762,238.168 190.762,236.800 191.200 M244.800 191.180 C 245.799 191.520,248.282 191.732,247.967 191.451 C 247.875 191.369,246.900 191.199,245.800 191.072 C 244.451 190.916,244.126 190.951,244.800 191.180 M283.600 191.220 C 282.926 191.449,283.251 191.484,284.600 191.328 C 285.700 191.201,286.675 191.031,286.767 190.949 C 287.082 190.668,284.599 190.880,283.600 191.220 M290.000 191.200 C 290.550 191.376,291.450 191.517,292.000 191.513 C 292.898 191.506,292.878 191.474,291.800 191.200 C 290.108 190.769,288.656 190.769,290.000 191.200 M32.444 192.147 C 32.122 192.535,32.106 193.144,32.388 194.247 L 32.786 195.800 32.592 194.121 C 32.439 192.806,32.549 192.353,33.099 192.033 C 33.484 191.808,33.597 191.619,33.349 191.612 C 33.101 191.605,32.694 191.846,32.444 192.147 M117.674 193.692 C 117.584 196.465,117.833 196.366,110.600 196.502 L 105.400 196.600 105.388 205.600 L 105.376 214.600 105.496 205.700 L 105.615 196.800 111.359 196.800 C 118.029 196.800,118.120 196.755,117.896 193.532 L 117.748 191.400 117.674 193.692 M124.490 202.000 C 124.466 207.830,124.571 213.304,124.723 214.163 C 124.983 215.629,124.921 195.841,124.656 192.800 C 124.589 192.030,124.515 196.170,124.490 202.000 M144.894 205.092 L 144.800 218.785 143.900 218.977 C 143.405 219.082,142.640 219.245,142.200 219.338 C 141.760 219.431,142.053 219.528,142.851 219.554 C 145.249 219.630,145.221 219.807,145.100 204.953 L 144.989 191.400 144.894 205.092 M234.150 192.235 C 233.463 192.574,232.383 193.414,231.750 194.101 C 230.719 195.223,230.783 195.199,232.372 193.876 C 233.347 193.064,234.371 192.400,234.648 192.400 C 234.926 192.400,235.264 192.220,235.400 192.000 C 235.719 191.484,235.643 191.498,234.150 192.235 M317.577 192.388 C 314.663 193.928,311.511 197.931,310.636 201.200 C 310.489 201.750,310.977 200.940,311.721 199.400 C 313.207 196.324,315.432 193.923,318.080 192.536 C 319.026 192.041,319.620 191.636,319.400 191.636 C 319.180 191.636,318.360 191.974,317.577 192.388 M342.468 192.000 C 342.488 193.039,343.118 194.746,343.132 193.800 C 343.138 193.360,342.989 192.640,342.800 192.200 C 342.589 191.710,342.461 191.632,342.468 192.000 M50.028 193.300 C 50.958 194.015,52.052 195.227,52.459 195.994 C 52.915 196.851,53.200 197.113,53.200 196.675 C 53.200 195.899,49.520 192.000,48.788 192.000 C 48.540 192.000,49.098 192.585,50.028 193.300 M64.267 192.267 C 64.120 192.413,64.003 192.728,64.006 192.967 C 64.010 193.255,64.111 193.246,64.306 192.940 C 64.468 192.688,65.050 192.397,65.600 192.295 L 66.600 192.109 65.567 192.054 C 64.998 192.025,64.413 192.120,64.267 192.267 M279.151 193.377 C 277.526 194.570,276.437 195.780,275.442 197.500 C 274.762 198.675,275.582 197.866,276.544 196.412 C 277.122 195.539,278.539 194.189,279.692 193.412 C 280.846 192.636,281.612 192.004,281.395 192.010 C 281.178 192.015,280.168 192.631,279.151 193.377 M84.600 192.652 C 84.820 192.845,85.720 193.632,86.599 194.401 L 88.198 195.800 86.999 194.466 C 86.340 193.732,85.440 192.945,85.000 192.717 C 84.560 192.489,84.380 192.460,84.600 192.652 M160.993 208.400 L 161.000 224.200 163.600 224.234 L 166.200 224.267 163.705 224.115 L 161.209 223.962 161.098 208.281 L 160.986 192.600 160.993 208.400 M182.889 193.986 C 183.881 194.859,184.920 196.124,185.200 196.799 C 185.479 197.474,185.787 197.947,185.883 197.850 C 186.432 197.301,182.349 192.400,181.343 192.400 C 181.202 192.400,181.898 193.114,182.889 193.986 M201.088 193.530 C 198.798 195.350,195.941 199.382,196.019 200.684 C 196.029 200.858,196.524 200.069,197.119 198.930 C 198.327 196.618,199.585 195.099,201.625 193.492 C 202.381 192.896,202.890 192.407,202.755 192.404 C 202.620 192.402,201.870 192.909,201.088 193.530 M333.278 193.667 C 334.091 194.400,335.214 195.810,335.773 196.800 C 336.333 197.790,336.793 198.410,336.795 198.178 C 336.805 197.297,334.438 194.085,333.148 193.228 L 331.800 192.334 333.278 193.667 M370.846 194.067 C 370.821 194.434,370.696 195.064,370.570 195.467 C 370.352 196.162,370.363 196.163,370.797 195.487 C 371.048 195.096,371.173 194.466,371.073 194.087 C 370.911 193.468,370.888 193.466,370.846 194.067 M219.200 194.351 C 219.200 194.598,219.367 194.800,219.571 194.800 C 220.027 194.800,221.995 198.755,222.412 200.513 C 222.655 201.533,222.727 201.605,222.759 200.857 C 222.807 199.760,220.692 195.140,219.805 194.404 C 219.389 194.059,219.200 194.042,219.200 194.351 M249.466 195.271 C 249.306 196.080,248.955 196.831,248.687 196.939 C 248.319 197.089,248.325 197.145,248.710 197.168 C 249.299 197.205,250.097 195.362,249.895 194.432 C 249.820 194.084,249.627 194.462,249.466 195.271 M343.444 195.800 C 343.773 197.271,344.002 197.590,343.994 196.567 C 343.991 196.145,343.805 195.530,343.582 195.200 C 343.285 194.762,343.248 194.924,343.444 195.800 M240.900 195.887 C 241.505 195.978,242.495 195.978,243.100 195.887 C 243.705 195.795,243.210 195.720,242.000 195.720 C 240.790 195.720,240.295 195.795,240.900 195.887 M364.249 196.215 C 364.112 196.573,364.015 197.166,364.034 197.533 C 364.053 197.900,364.227 197.669,364.421 197.020 C 364.798 195.758,364.665 195.133,364.249 196.215 M34.800 196.418 C 34.362 196.715,34.524 196.752,35.400 196.556 C 36.871 196.227,37.190 195.998,36.167 196.006 C 35.745 196.009,35.130 196.195,34.800 196.418 M70.500 196.488 L 69.600 196.922 69.694 210.561 L 69.789 224.200 69.900 210.815 C 70.022 196.146,69.881 196.885,72.645 196.422 L 74.600 196.094 73.000 196.074 C 72.120 196.063,70.995 196.249,70.500 196.488 M77.233 196.143 C 77.325 196.221,78.030 196.401,78.800 196.542 C 79.785 196.723,80.022 196.682,79.600 196.406 C 79.058 196.050,76.837 195.803,77.233 196.143 M167.500 196.465 L 166.400 196.867 166.494 210.533 L 166.589 224.200 166.700 210.815 C 166.822 196.070,166.663 196.847,169.659 196.411 C 171.588 196.131,171.642 196.098,170.200 196.081 C 169.320 196.071,168.105 196.244,167.500 196.465 M174.033 196.143 C 174.125 196.221,174.830 196.401,175.600 196.542 C 176.585 196.723,176.822 196.682,176.400 196.406 C 175.858 196.050,173.637 195.803,174.033 196.143 M285.200 196.418 C 284.762 196.715,284.924 196.752,285.800 196.556 C 287.271 196.227,287.590 195.998,286.567 196.006 C 286.145 196.009,285.530 196.195,285.200 196.418 M289.633 196.143 C 289.725 196.221,290.430 196.401,291.200 196.542 C 292.185 196.723,292.422 196.682,292.000 196.406 C 291.458 196.050,289.237 195.803,289.633 196.143 M326.833 196.121 C 326.925 196.188,327.540 196.558,328.200 196.945 L 329.400 197.647 328.456 196.824 C 327.936 196.371,327.321 196.000,327.089 196.000 C 326.857 196.000,326.742 196.054,326.833 196.121 M229.849 197.015 C 229.712 197.373,229.618 198.056,229.641 198.533 C 229.667 199.081,229.803 198.886,230.010 198.003 C 230.360 196.516,230.265 195.933,229.849 197.015 M46.500 198.000 C 47.071 198.770,47.663 199.903,47.817 200.519 C 47.970 201.134,48.182 201.551,48.288 201.445 C 48.695 201.039,47.527 198.472,46.519 197.559 L 45.462 196.600 46.500 198.000 M80.433 196.900 C 80.525 196.955,81.140 197.450,81.800 198.000 L 83.000 199.000 82.030 197.900 C 81.497 197.295,80.882 196.800,80.664 196.800 C 80.445 196.800,80.342 196.845,80.433 196.900 M203.847 198.401 C 203.051 199.282,202.400 200.128,202.400 200.281 C 202.400 200.435,202.535 200.389,202.701 200.180 C 202.867 199.971,203.622 199.125,204.380 198.300 C 205.137 197.475,205.653 196.800,205.525 196.800 C 205.397 196.800,204.642 197.521,203.847 198.401 M282.378 198.299 L 281.000 199.798 282.400 198.602 C 283.170 197.944,283.971 197.270,284.180 197.103 C 284.416 196.915,284.408 196.800,284.158 196.800 C 283.938 196.800,283.137 197.475,282.378 198.299 M318.647 198.401 C 317.851 199.282,317.200 200.128,317.200 200.281 C 317.200 200.435,317.335 200.389,317.501 200.180 C 317.667 199.971,318.422 199.125,319.180 198.300 C 319.937 197.475,320.453 196.800,320.325 196.800 C 320.197 196.800,319.442 197.521,318.647 198.401 M329.600 197.783 C 329.600 197.943,329.960 198.531,330.400 199.091 C 330.840 199.650,331.200 199.977,331.200 199.817 C 331.200 199.657,330.840 199.069,330.400 198.509 C 329.960 197.950,329.600 197.623,329.600 197.783 M215.406 198.912 C 215.792 199.524,216.209 199.924,216.332 199.801 C 216.455 199.678,216.139 199.178,215.630 198.689 L 214.704 197.800 215.406 198.912 M235.358 199.025 C 235.216 199.589,235.258 200.404,235.450 200.835 C 235.714 201.426,235.800 201.173,235.800 199.809 C 235.800 197.734,235.718 197.589,235.358 199.025 M186.268 199.800 C 186.571 201.777,186.802 202.114,186.794 200.567 C 186.791 199.925,186.616 199.130,186.405 198.800 C 186.145 198.391,186.101 198.710,186.268 199.800 M344.406 199.033 C 344.409 199.455,344.595 200.070,344.818 200.400 C 345.115 200.838,345.152 200.676,344.956 199.800 C 344.627 198.329,344.398 198.010,344.406 199.033 M337.044 199.800 C 337.373 201.271,337.602 201.590,337.594 200.567 C 337.591 200.145,337.405 199.530,337.182 199.200 C 336.885 198.762,336.848 198.924,337.044 199.800 M89.701 201.000 C 89.705 201.880,89.787 202.193,89.883 201.695 C 89.979 201.198,89.975 200.478,89.875 200.095 C 89.775 199.713,89.696 200.120,89.701 201.000 M273.829 201.029 C 273.681 201.615,273.638 202.172,273.732 202.266 C 273.827 202.360,274.024 201.958,274.171 201.371 C 274.319 200.785,274.362 200.228,274.268 200.134 C 274.173 200.040,273.976 200.442,273.829 201.029 M180.480 201.000 C 180.480 201.440,180.624 202.250,180.800 202.800 C 181.054 203.592,181.120 203.633,181.120 203.000 C 181.120 202.560,180.976 201.750,180.800 201.200 C 180.546 200.408,180.480 200.367,180.480 201.000 M229.646 201.720 C 229.586 203.177,230.407 204.708,232.050 206.200 C 233.320 207.354,233.315 207.335,231.896 205.710 C 231.084 204.781,230.333 203.611,230.226 203.110 C 230.119 202.610,229.955 201.840,229.862 201.400 C 229.743 200.837,229.679 200.932,229.646 201.720 M362.440 202.240 C 362.210 203.073,362.094 203.827,362.182 203.915 C 362.270 204.003,362.530 203.393,362.760 202.560 C 362.990 201.727,363.106 200.973,363.018 200.885 C 362.930 200.797,362.670 201.407,362.440 202.240 M83.646 201.600 C 83.665 201.930,83.824 202.650,84.000 203.200 L 84.320 204.200 84.354 203.200 C 84.373 202.650,84.213 201.930,84.000 201.600 C 83.655 201.067,83.616 201.067,83.646 201.600 M345.245 201.600 C 345.253 201.930,345.606 202.920,346.029 203.800 C 346.452 204.680,346.686 204.962,346.549 204.426 C 346.173 202.961,345.229 200.914,345.245 201.600 M53.996 212.382 L 53.800 223.364 52.800 223.642 C 51.917 223.888,51.900 223.925,52.651 223.960 C 54.336 224.039,54.419 223.449,54.303 212.151 L 54.193 201.400 53.996 212.382 M186.975 213.200 C 186.975 219.250,187.031 221.725,187.099 218.700 C 187.167 215.675,187.167 210.725,187.099 207.700 C 187.031 204.675,186.975 207.150,186.975 213.200 M195.301 203.800 C 195.305 204.680,195.387 204.993,195.483 204.495 C 195.579 203.998,195.575 203.278,195.475 202.895 C 195.375 202.513,195.296 202.920,195.301 203.800 M310.114 204.200 C 310.117 205.300,310.195 205.703,310.287 205.095 C 310.379 204.486,310.377 203.586,310.282 203.095 C 310.187 202.603,310.111 203.100,310.114 204.200 M90.175 213.400 C 90.175 219.340,90.231 221.826,90.299 218.924 C 90.367 216.022,90.367 211.162,90.299 208.124 C 90.231 205.086,90.175 207.460,90.175 213.400 M273.110 205.700 C 272.997 207.075,273.025 209.190,273.172 210.400 C 273.380 212.103,273.449 211.537,273.474 207.900 C 273.512 202.624,273.412 202.025,273.110 205.700 M338.077 206.294 L 338.000 209.187 327.100 209.294 L 316.200 209.400 316.163 210.600 C 316.128 211.732,316.135 211.738,316.288 210.700 L 316.451 209.600 327.238 209.600 C 339.456 209.600,338.519 209.908,338.298 205.958 L 338.154 203.400 338.077 206.294 M40.000 204.391 C 38.687 204.583,39.320 204.666,42.341 204.701 C 44.618 204.727,46.418 204.695,46.341 204.629 C 45.975 204.322,41.603 204.158,40.000 204.391 M223.274 206.694 L 223.200 209.187 212.300 209.294 L 201.400 209.400 201.363 210.600 C 201.328 211.732,201.335 211.738,201.488 210.700 L 201.651 209.600 212.438 209.600 C 224.559 209.600,223.738 209.841,223.497 206.352 L 223.348 204.200 223.274 206.694 M279.080 206.300 C 278.958 207.125,278.994 208.520,279.160 209.400 C 279.413 210.735,279.467 210.487,279.487 207.900 C 279.514 204.461,279.412 204.060,279.080 206.300 M32.544 206.741 C 31.073 207.807,29.600 209.577,29.600 210.279 C 29.600 210.448,30.049 209.925,30.598 209.117 C 31.147 208.308,32.362 207.188,33.298 206.627 C 34.234 206.067,34.802 205.606,34.560 205.604 C 34.318 205.602,33.411 206.114,32.544 206.741 M194.920 208.000 C 194.920 209.210,194.995 209.705,195.087 209.100 C 195.178 208.495,195.178 207.505,195.087 206.900 C 194.995 206.295,194.920 206.790,194.920 208.000 M309.709 208.000 C 309.709 208.990,309.787 209.395,309.882 208.900 C 309.978 208.405,309.978 207.595,309.882 207.100 C 309.787 206.605,309.709 207.010,309.709 208.000 M181.388 215.400 L 181.400 224.200 183.800 224.229 L 186.200 224.257 183.908 224.110 L 181.615 223.962 181.495 215.281 L 181.375 206.600 181.388 215.400 M246.800 207.324 C 246.800 207.417,247.565 207.998,248.500 208.615 C 249.435 209.232,249.989 209.480,249.731 209.168 C 249.234 208.567,246.800 207.036,246.800 207.324 M38.400 209.618 C 37.962 209.915,38.124 209.952,39.000 209.756 C 40.471 209.427,40.790 209.198,39.767 209.206 C 39.345 209.209,38.730 209.395,38.400 209.618 M46.000 209.355 C 46.000 209.440,46.530 209.587,47.179 209.682 C 47.827 209.777,48.267 209.708,48.155 209.528 C 47.957 209.207,46.000 209.050,46.000 209.355 M250.655 211.000 C 251.580 212.579,251.600 212.603,251.600 212.111 C 251.600 211.879,251.229 211.264,250.776 210.744 L 249.953 209.800 250.655 211.000 M310.109 211.600 C 310.109 212.590,310.187 212.995,310.282 212.500 C 310.378 212.005,310.378 211.195,310.282 210.700 C 310.187 210.205,310.109 210.610,310.109 211.600 M354.422 210.231 C 354.393 210.802,356.368 215.663,356.885 216.296 C 357.395 216.919,358.009 216.569,357.972 215.676 C 357.949 215.128,357.881 215.151,357.613 215.800 C 357.257 216.660,357.172 216.514,355.194 211.647 C 354.782 210.631,354.434 209.994,354.422 210.231 M29.043 211.433 C 28.702 212.321,28.751 217.304,29.106 217.862 C 29.268 218.116,29.400 216.631,29.400 214.562 C 29.400 210.490,29.401 210.499,29.043 211.433 M35.423 211.689 C 35.033 212.245,34.822 213.332,34.859 214.589 L 34.918 216.600 35.159 214.361 C 35.291 213.130,35.647 211.825,35.949 211.461 C 36.251 211.098,36.396 210.800,36.272 210.800 C 36.147 210.800,35.765 211.200,35.423 211.689 M130.468 212.200 C 130.462 212.640,130.611 213.360,130.800 213.800 C 131.238 214.819,131.238 213.768,130.800 212.400 C 130.543 211.596,130.477 211.557,130.468 212.200 M105.619 215.340 C 105.567 216.263,107.037 218.502,108.034 219.018 C 109.725 219.892,109.895 219.719,108.359 218.686 C 107.612 218.183,106.694 217.148,106.319 216.386 C 105.945 215.624,105.630 215.153,105.619 215.340 M251.849 216.215 C 251.712 216.573,251.618 217.256,251.641 217.733 C 251.667 218.281,251.803 218.086,252.010 217.203 C 252.360 215.716,252.265 215.133,251.849 216.215 M281.200 215.725 C 281.200 215.794,281.785 216.379,282.500 217.025 L 283.800 218.200 282.625 216.900 C 281.530 215.688,281.200 215.416,281.200 215.725 M259.692 217.021 C 259.205 217.362,258.597 218.037,258.341 218.521 C 258.031 219.106,258.285 218.966,259.098 218.100 C 260.600 216.503,262.829 216.318,264.646 217.639 L 265.800 218.478 264.678 217.439 C 263.370 216.229,261.095 216.038,259.692 217.021 M132.888 217.813 C 133.486 218.443,134.047 218.877,134.135 218.779 C 134.223 218.680,133.733 218.165,133.047 217.634 L 131.800 216.669 132.888 217.813 M245.359 217.763 C 245.240 218.073,244.610 218.547,243.958 218.817 C 243.307 219.087,242.853 219.387,242.950 219.483 C 243.258 219.791,245.494 218.454,245.739 217.815 C 245.869 217.477,245.885 217.200,245.775 217.200 C 245.665 217.200,245.478 217.454,245.359 217.763 M275.838 218.324 C 276.257 219.052,277.030 220.042,277.556 220.524 C 278.119 221.040,277.895 220.578,277.012 219.400 C 275.123 216.883,274.879 216.659,275.838 218.324 M229.754 218.577 C 229.632 218.894,229.617 219.479,229.720 219.877 C 229.838 220.332,229.924 220.177,229.954 219.457 C 229.996 218.421,230.103 218.337,231.100 218.569 C 231.916 218.758,232.045 218.720,231.600 218.418 C 230.748 217.842,230.011 217.905,229.754 218.577 M126.622 219.400 C 127.492 220.926,128.782 222.356,129.772 222.890 C 130.197 223.118,129.830 222.607,128.957 221.753 C 128.084 220.899,127.047 219.750,126.654 219.200 C 125.954 218.220,125.953 218.224,126.622 219.400 M295.380 218.761 C 295.171 218.960,294.640 219.209,294.200 219.315 C 293.441 219.497,293.444 219.510,294.251 219.554 C 294.719 219.579,295.326 219.330,295.600 219.000 C 296.143 218.346,295.991 218.181,295.380 218.761 M313.153 219.442 C 313.937 220.631,316.440 222.800,317.028 222.800 C 317.183 222.800,316.610 222.247,315.755 221.571 C 314.900 220.895,313.780 219.860,313.267 219.271 L 312.334 218.200 313.153 219.442 M114.200 219.200 C 113.696 219.417,113.622 219.544,114.000 219.544 C 114.330 219.544,114.960 219.389,115.400 219.200 C 115.904 218.983,115.978 218.856,115.600 218.856 C 115.270 218.856,114.640 219.011,114.200 219.200 M216.000 219.200 C 215.196 219.457,215.157 219.523,215.800 219.532 C 216.240 219.538,216.960 219.389,217.400 219.200 C 218.419 218.762,217.368 218.762,216.000 219.200 M250.694 220.103 L 249.988 221.400 250.794 220.456 C 251.480 219.652,251.846 218.794,251.500 218.803 C 251.445 218.804,251.082 219.389,250.694 220.103 M265.800 220.800 C 265.800 221.858,265.932 222.516,266.094 222.262 C 266.256 222.008,266.388 221.350,266.388 220.800 C 266.388 220.250,266.256 219.592,266.094 219.338 C 265.932 219.084,265.800 219.742,265.800 220.800 M285.600 219.200 C 285.930 219.413,286.470 219.588,286.800 219.588 C 287.333 219.588,287.333 219.545,286.800 219.200 C 286.470 218.987,285.930 218.812,285.600 218.812 C 285.067 218.812,285.067 218.855,285.600 219.200 M330.800 219.200 L 329.800 219.520 330.800 219.554 C 331.350 219.573,332.070 219.413,332.400 219.200 C 333.164 218.706,332.342 218.706,330.800 219.200 M220.671 221.046 C 220.880 223.013,220.847 223.101,219.797 223.365 C 219.197 223.516,218.792 223.725,218.897 223.831 C 220.198 225.132,221.570 222.349,220.787 220.000 C 220.564 219.333,220.525 219.681,220.671 221.046 M41.500 219.893 C 42.435 219.977,43.965 219.977,44.900 219.893 C 45.835 219.809,45.070 219.740,43.200 219.740 C 41.330 219.740,40.565 219.809,41.500 219.893 M237.491 219.889 C 238.201 219.977,239.461 219.979,240.291 219.892 C 241.121 219.805,240.540 219.733,239.000 219.731 C 237.460 219.729,236.781 219.800,237.491 219.889 M30.400 220.525 C 30.400 220.594,30.985 221.179,31.700 221.825 L 33.000 223.000 31.825 221.700 C 30.730 220.488,30.400 220.216,30.400 220.525 M229.029 221.829 C 228.881 222.415,228.838 222.972,228.932 223.066 C 229.027 223.160,229.224 222.758,229.371 222.171 C 229.519 221.585,229.562 221.028,229.468 220.934 C 229.373 220.840,229.176 221.242,229.029 221.829 M335.660 221.823 C 335.615 222.749,335.333 223.158,334.500 223.508 C 333.499 223.928,333.490 223.949,334.400 223.740 C 335.817 223.414,336.086 223.055,335.891 221.749 L 335.720 220.600 335.660 221.823 M201.021 222.034 C 201.295 222.477,203.616 223.718,203.809 223.524 C 203.884 223.450,203.235 223.000,202.368 222.525 C 201.500 222.050,200.894 221.829,201.021 222.034 M258.387 223.091 C 258.624 223.581,259.219 224.176,259.709 224.413 C 260.538 224.814,260.549 224.803,259.868 224.254 C 259.465 223.930,258.870 223.335,258.546 222.932 C 257.997 222.251,257.986 222.262,258.387 223.091 M148.200 223.600 C 147.181 224.038,148.232 224.038,149.600 223.600 C 150.404 223.343,150.443 223.277,149.800 223.268 C 149.360 223.262,148.640 223.411,148.200 223.600 M36.600 224.400 C 38.292 224.831,39.744 224.831,38.400 224.400 C 37.850 224.224,36.950 224.083,36.400 224.087 C 35.502 224.094,35.522 224.126,36.600 224.400 M46.200 224.422 C 45.189 224.616,45.778 224.651,47.800 224.516 C 49.560 224.399,51.075 224.235,51.167 224.151 C 51.444 223.900,47.911 224.092,46.200 224.422 M65.500 224.289 C 66.215 224.378,67.385 224.378,68.100 224.289 C 68.815 224.201,68.230 224.128,66.800 224.128 C 65.370 224.128,64.785 224.201,65.500 224.289 M85.900 224.289 C 86.615 224.378,87.785 224.378,88.500 224.289 C 89.215 224.201,88.630 224.128,87.200 224.128 C 85.770 224.128,85.185 224.201,85.900 224.289 M106.400 224.400 C 106.950 224.576,107.760 224.720,108.200 224.720 C 108.833 224.720,108.792 224.654,108.000 224.400 C 107.450 224.224,106.640 224.080,106.200 224.080 C 105.567 224.080,105.608 224.146,106.400 224.400 M113.600 224.400 C 112.256 224.831,113.708 224.831,115.400 224.400 C 116.478 224.126,116.498 224.094,115.600 224.087 C 115.050 224.083,114.150 224.224,113.600 224.400 M144.705 224.283 C 145.202 224.379,145.922 224.375,146.305 224.275 C 146.687 224.175,146.280 224.096,145.400 224.101 C 144.520 224.105,144.207 224.187,144.705 224.283 M243.000 224.419 C 242.442 224.671,242.685 224.707,243.800 224.538 C 244.680 224.404,245.475 224.228,245.567 224.147 C 245.910 223.844,243.768 224.071,243.000 224.419 M296.100 224.276 C 296.485 224.376,297.115 224.376,297.500 224.276 C 297.885 224.175,297.570 224.093,296.800 224.093 C 296.030 224.093,295.715 224.175,296.100 224.276 M355.900 224.289 C 356.615 224.378,357.785 224.378,358.500 224.289 C 359.215 224.201,358.630 224.128,357.200 224.128 C 355.770 224.128,355.185 224.201,355.900 224.289 " stroke="none" fill="#c47c7c" fill-rule="evenodd"></path><path id="path4" d="M295.767 184.400 C 295.767 188.690,295.826 190.445,295.898 188.300 C 295.970 186.155,295.970 182.645,295.898 180.500 C 295.826 178.355,295.767 180.110,295.767 184.400 M40.505 190.687 C 41.114 190.779,42.014 190.777,42.505 190.682 C 42.997 190.587,42.500 190.511,41.400 190.514 C 40.300 190.517,39.897 190.595,40.505 190.687 M240.700 190.682 C 241.195 190.778,242.005 190.778,242.500 190.682 C 242.995 190.587,242.590 190.509,241.600 190.509 C 240.610 190.509,240.205 190.587,240.700 190.682 M108.700 191.497 C 110.295 191.573,112.905 191.573,114.500 191.497 C 116.095 191.421,114.790 191.359,111.600 191.359 C 108.410 191.359,107.105 191.421,108.700 191.497 M126.300 191.489 C 127.015 191.578,128.185 191.578,128.900 191.489 C 129.615 191.401,129.030 191.328,127.600 191.328 C 126.170 191.328,125.585 191.401,126.300 191.489 M146.700 191.489 C 147.415 191.578,148.585 191.578,149.300 191.489 C 150.015 191.401,149.430 191.328,148.000 191.328 C 146.570 191.328,145.985 191.401,146.700 191.489 M344.100 191.491 C 344.925 191.578,346.275 191.578,347.100 191.491 C 347.925 191.405,347.250 191.334,345.600 191.334 C 343.950 191.334,343.275 191.405,344.100 191.491 M367.300 191.491 C 368.125 191.578,369.475 191.578,370.300 191.491 C 371.125 191.405,370.450 191.334,368.800 191.334 C 367.150 191.334,366.475 191.405,367.300 191.491 M75.105 196.283 C 75.602 196.379,76.322 196.375,76.705 196.275 C 77.087 196.175,76.680 196.096,75.800 196.101 C 74.920 196.105,74.607 196.187,75.105 196.283 M172.100 196.276 C 172.485 196.376,173.115 196.376,173.500 196.276 C 173.885 196.175,173.570 196.093,172.800 196.093 C 172.030 196.093,171.715 196.175,172.100 196.276 M287.700 196.276 C 288.085 196.376,288.715 196.376,289.100 196.276 C 289.485 196.175,289.170 196.093,288.400 196.093 C 287.630 196.093,287.315 196.175,287.700 196.276 M295.773 208.800 C 295.773 214.190,295.830 216.395,295.899 213.700 C 295.968 211.005,295.968 206.595,295.899 203.900 C 295.830 201.205,295.773 203.410,295.773 208.800 M205.500 204.698 C 207.535 204.771,210.865 204.771,212.900 204.698 C 214.935 204.625,213.270 204.566,209.200 204.566 C 205.130 204.566,203.465 204.625,205.500 204.698 M320.300 204.698 C 322.335 204.771,325.665 204.771,327.700 204.698 C 329.735 204.625,328.070 204.566,324.000 204.566 C 319.930 204.566,318.265 204.625,320.300 204.698 M187.373 214.600 C 187.373 219.880,187.430 221.985,187.499 219.277 C 187.568 216.569,187.568 212.249,187.499 209.677 C 187.429 207.105,187.372 209.320,187.373 214.600 M40.905 225.087 C 41.514 225.179,42.414 225.177,42.905 225.082 C 43.397 224.987,42.900 224.911,41.800 224.914 C 40.700 224.917,40.297 224.995,40.905 225.087 M109.705 225.087 C 110.314 225.179,111.214 225.177,111.705 225.082 C 112.197 224.987,111.700 224.911,110.600 224.914 C 109.500 224.917,109.097 224.995,109.705 225.087 M137.300 225.087 C 137.905 225.178,138.895 225.178,139.500 225.087 C 140.105 224.995,139.610 224.920,138.400 224.920 C 137.190 224.920,136.695 224.995,137.300 225.087 M212.500 225.076 C 212.885 225.176,213.515 225.176,213.900 225.076 C 214.285 224.975,213.970 224.893,213.200 224.893 C 212.430 224.893,212.115 224.975,212.500 225.076 M240.100 225.076 C 240.485 225.176,241.115 225.176,241.500 225.076 C 241.885 224.975,241.570 224.893,240.800 224.893 C 240.030 224.893,239.715 224.975,240.100 225.076 M291.105 225.083 C 291.602 225.179,292.322 225.175,292.705 225.075 C 293.087 224.975,292.680 224.896,291.800 224.901 C 290.920 224.905,290.607 224.987,291.105 225.083 M327.300 225.076 C 327.685 225.176,328.315 225.176,328.700 225.076 C 329.085 224.975,328.770 224.893,328.000 224.893 C 327.230 224.893,326.915 224.975,327.300 225.076 " stroke="none" fill="#bc7070" fill-rule="evenodd"></path></g></svg>